<svg width="14px" height="29px" viewBox="0 0 14 29" version="1.1" xmlns="http://www.w3.org/2000/svg" xmlns:xlink="http://www.w3.org/1999/xlink">
    <g stroke="none" stroke-width="1" fill="none" fill-rule="evenodd">
        <g  transform="translate(-18.000000, -11.000000)" fill="#00FFB2">
            <g >
                <path d="M24.52,11 C28.68,11 31.12,13.48 31.12,17.72 L31.12,20.24 L27.04,20.44 L27.04,18.16 C27.04,15.92 26.2,14.92 24.64,14.92 C23.08,14.92 22.24,15.92 22.24,17.76 L22.24,33.04 C22.24,34.88 23.08,35.88 24.64,35.88 C26.2,35.88 27.04,34.88 27.04,32.64 L27.04,29.52 L31.12,29.72 L31.12,33.08 C31.12,37.32 28.68,39.8 24.52,39.8 C20.4,39.8 18,37.32 18,33.08 L18,17.72 C18,13.48 20.4,11 24.52,11 Z" id="C-logo"></path>
            </g>
        </g>
    </g>
</svg>