<svg width="17px" height="15px" viewBox="0 0 17 15" version="1.1" xmlns="http://www.w3.org/2000/svg" xmlns:xlink="http://www.w3.org/1999/xlink">
    <g stroke="none" stroke-width="1" fill="none" fill-rule="evenodd">
        <g transform="translate(-255.000000, -233.000000)" fill="#F7FFFC" fill-rule="nonzero">
            <g transform="translate(17.000000, 119.000000)">
                <g transform="translate(238.000000, 114.000000)">
                    <path d="M16.7241152,5.24064844 L10.8802324,0.194271484 C10.3687051,-0.247496094 9.5625,0.111130859 9.5625,0.797373047 L9.5625,3.45538281 C4.22911523,3.51644336 0,4.58535156 0,9.63973047 C0,11.6797637 1.31421289,13.7007715 2.76691602,14.7573945 C3.22023828,15.0871348 3.86630469,14.673291 3.69916016,14.1387871 C2.19359766,9.32390234 4.41325977,8.04564844 9.5625,7.97157227 L9.5625,10.890625 C9.5625,11.5779297 10.3693359,11.9349629 10.8802324,11.4937266 L16.7241152,6.44685156 C17.091707,6.12936328 17.0922051,5.55856836 16.7241152,5.24064844 Z" id="Path"></path>
                </g>
            </g>
        </g>
    </g>
</svg>