<svg width="30px" height="30px" viewBox="0 0 30 30" version="1.1" xmlns="http://www.w3.org/2000/svg" xmlns:xlink="http://www.w3.org/1999/xlink">
    <g stroke="none" stroke-width="1" fill="none" fill-rule="evenodd">
        <g transform="translate(-255.000000, -11.000000)" fill="#00FFB2" fill-rule="nonzero">
            <g>
                <path d="M270,16.8064516 C266.794355,16.8064516 264.193548,19.4072581 264.193548,22.6129032 C264.193548,25.8185484 266.794355,28.4193548 270,28.4193548 C273.205645,28.4193548 275.806452,25.8185484 275.806452,22.6129032 C275.806452,19.4072581 273.205645,16.8064516 270,16.8064516 Z M270,11 C261.71371,11 255,17.7137097 255,26 C255,34.2862903 261.71371,41 270,41 C278.28629,41 285,34.2862903 285,26 C285,17.7137097 278.28629,11 270,11 Z M279.840726,33.0100806 C278.364919,31.1108871 276.084677,29.8709677 273.483871,29.8709677 C272.866935,29.8709677 271.91129,30.4516129 270,30.4516129 C268.094758,30.4516129 267.133065,29.8709677 266.516129,29.8709677 C263.921371,29.8709677 261.641129,31.1108871 260.159274,33.0100806 C258.743952,31.0322581 257.903226,28.6129032 257.903226,26 C257.903226,19.328629 263.328629,13.9032258 270,13.9032258 C276.671371,13.9032258 282.096774,19.328629 282.096774,26 C282.096774,28.6129032 281.256048,31.0322581 279.840726,33.0100806 Z" id="user-icon"></path>
            </g>
        </g>
    </g>
</svg>