
<svg width="20px" height="20px" viewBox="0 0 20 20" version="1.1" xmlns="http://www.w3.org/2000/svg" xmlns:xlink="http://www.w3.org/1999/xlink">
    <g stroke="none" stroke-width="1" fill="none" fill-rule="evenodd">
        <g transform="translate(-28.000000, -130.000000)" fill="#F7FFFC" fill-rule="nonzero">
            <g transform="translate(17.000000, 119.000000)">
                <path d="M21,14.8709677 C18.8629032,14.8709677 17.1290323,16.6048387 17.1290323,18.7419355 C17.1290323,20.8790323 18.8629032,22.6129032 21,22.6129032 C23.1370968,22.6129032 24.8709677,20.8790323 24.8709677,18.7419355 C24.8709677,16.6048387 23.1370968,14.8709677 21,14.8709677 Z M21,11 C15.4758065,11 11,15.4758065 11,21 C11,26.5241935 15.4758065,31 21,31 C26.5241935,31 31,26.5241935 31,21 C31,15.4758065 26.5241935,11 21,11 Z M27.5604839,25.6733871 C26.5766129,24.4072581 25.0564516,23.5806452 23.3225806,23.5806452 C22.9112903,23.5806452 22.2741935,23.9677419 21,23.9677419 C19.7298387,23.9677419 19.0887097,23.5806452 18.6774194,23.5806452 C16.9475806,23.5806452 15.4274194,24.4072581 14.4395161,25.6733871 C13.4959677,24.3548387 12.9354839,22.7419355 12.9354839,21 C12.9354839,16.5524194 16.5524194,12.9354839 21,12.9354839 C25.4475806,12.9354839 29.0645161,16.5524194 29.0645161,21 C29.0645161,22.7419355 28.5040323,24.3548387 27.5604839,25.6733871 Z" id="user-icon-copy"></path>
            </g>
        </g>
    </g>
</svg>