<svg width="19px" height="22px" viewBox="0 0 14 17" version="1.1" xmlns="http://www.w3.org/2000/svg" xmlns:xlink="http://www.w3.org/1999/xlink">
    <g id="Icons" stroke="none" stroke-width="1" fill="none" fill-rule="evenodd">
        <g transform="translate(-259.000000, -139.000000)" fill-rule="nonzero" id="fire">
            <g transform="translate(259.000000, 139.000000)">
                <path d="M0.239427734,8.29082031 C0.239427734,8.29082031 0.911060547,9.27751758 2.31874023,10.112709 C2.31874023,10.112709 1.29923828,1.49643164 7.94195508,-5.68434189e-14 C6.2400625,6.24620508 10.1067988,8.00773047 11.5163047,4.70773828 C13.8701738,7.85044727 12.0829492,10.5922949 12.0829492,10.5922949 C13.0481309,10.7313496 13.8588848,9.67688477 13.8588848,9.67688477 C13.866123,9.80677539 13.8701738,9.9375625 13.8701738,10.0692793 C13.8701738,13.897002 10.767209,17 6.93945313,17 C3.11169727,17 0.00869921875,13.897002 0.00869921875,10.0692461 C0.00869921875,9.45439062 0.0891835937,8.85839453 0.239427734,8.29082031 Z" id="Path" fill="#FF6536"></path>
                <path d="M13.858918,9.67688477 C13.858918,9.67688477 13.0481641,10.7313496 12.0829824,10.5922949 C12.0829824,10.5922949 13.870207,7.85044727 11.5163379,4.70773828 C10.106832,8.00773047 6.2400957,6.24620508 7.94198828,0 C7.5862168,0.0801523438 7.2525918,0.180857422 6.93945313,0.299425781 L6.93945313,17 C10.767209,17 13.870207,13.897002 13.870207,10.0692461 C13.870207,9.9375293 13.8661563,9.80677539 13.858918,9.67688477 Z" id="Path" fill="#FF421D"></path>
                <path d="M3.89990625,13.9604531 C3.89990625,15.6391367 5.26076953,17 6.93945312,17 C8.61813672,17 9.979,15.6391367 9.979,13.9604531 C9.979,13.0619434 9.58916211,12.2545098 8.96935937,11.6980586 C7.79416797,13.2946309 6.11946875,10.8727617 7.42461719,9.10416406 C7.42461719,9.10416406 3.89990625,9.54586523 3.89990625,13.9604531 Z" id="Path" fill="#FBBF00"></path>
                <path d="M9.979,13.9604531 C9.979,13.0619434 9.58916211,12.2545098 8.96935937,11.6980586 C7.79416797,13.2946309 6.11946875,10.8727617 7.42461719,9.10416406 C7.42461719,9.10416406 7.23310156,9.12823633 6.93945312,9.22090625 L6.93945312,17 C8.61813672,17 9.979,15.6391367 9.979,13.9604531 Z" id="Path" fill="#FFA900"></path>
            </g>
        </g>
    </g>
</svg>