<svg width="19px" height="22px" viewBox="0 0 14 17" version="1.1" xmlns="http://www.w3.org/2000/svg" xmlns:xlink="http://www.w3.org/1999/xlink">
    <defs>
        <path d="M0.239427734,8.29082031 C0.239427734,8.29082031 0.911060547,9.27751758 2.31874023,10.112709 C2.31874023,10.112709 1.29923828,1.49643164 7.94195508,-5.68434189e-14 C6.2400625,6.24620508 10.1067988,8.00773047 11.5163047,4.70773828 C13.8701738,7.85044727 12.0829492,10.5922949 12.0829492,10.5922949 C13.0481309,10.7313496 13.8588848,9.67688477 13.8588848,9.67688477 C13.866123,9.80677539 13.8701738,9.9375625 13.8701738,10.0692793 C13.8701738,13.897002 10.767209,17 6.93945313,17 C3.11169727,17 0.00869921875,13.897002 0.00869921875,10.0692461 C0.00869921875,9.45439062 0.0891835938,8.85839453 0.239427734,8.29082031 Z M3.89990625,13.9604531 C3.89990625,15.6391367 5.26076953,17 6.93945313,17 C8.61813672,17 9.979,15.6391367 9.979,13.9604531 C9.979,13.0619434 9.58916211,12.2545098 8.96935938,11.6980586 C7.79416797,13.2946309 6.11946875,10.8727617 7.42461719,9.10416406 C7.42461719,9.10416406 3.89990625,9.54586523 3.89990625,13.9604531 Z" id="path-1"></path>
    </defs>
    <g id="Icons" stroke="none" stroke-width="1" fill="none" fill-rule="evenodd">
        <g transform="translate(-259.000000, -106.000000)" id="fire-gray">
            <g transform="translate(259.000000, 106.000000)">
                <mask id="mask-2" fill="white">
                    <use xlink:href="#path-1"></use>
                </mask>
                <use id="Combined-Shape" fill="#DAE5E2" fill-rule="nonzero" xlink:href="#path-1"></use>
            </g>
        </g>
    </g>
</svg>