<svg width="19px" height="22px" viewBox="0 0 16 17" version="1.1" xmlns="http://www.w3.org/2000/svg" xmlns:xlink="http://www.w3.org/1999/xlink">
    <g id="Icons" stroke="none" stroke-width="1" fill="none" fill-rule="evenodd">
        <g transform="translate(-308.000000, -157.000000)" fill-rule="nonzero" id="snowflake-copy">
            <g transform="translate(308.000000, 157.000000)">
                <path d="M15.1665224,10.3030853 L13.1078898,10.8517151 L11.5938787,9.98246767 L11.5938787,7.01753233 L13.1078898,6.14828491 L15.1665224,6.69691466 C15.439094,6.76980591 15.7192298,6.60884858 15.7925241,6.33777618 C15.8654273,6.06657411 15.7035797,5.78771973 15.4310082,5.71521758 L14.3596323,5.42961884 L15.2047346,4.94428252 C15.4490057,4.80407715 15.5328639,4.49331665 15.3917526,4.25 C15.2507719,4.00707246 14.9379014,3.92367554 14.6936304,4.06401064 L13.8485281,4.54921723 L14.1354455,3.48386382 C14.2087399,3.21279145 14.0468924,2.93380737 13.7743208,2.86130523 C13.501358,2.7885437 13.2213526,2.94950103 13.1483191,3.22057343 L12.5967855,5.2678833 L11.0829048,6.13713075 L8.50103908,4.65466309 L8.50103908,2.91655732 L10.0081381,1.41774751 C10.2078066,1.21917725 10.2078066,0.89726259 10.0081381,0.69869233 C9.80846968,0.500511178 9.48516588,0.500511178 9.28549745,0.69869233 L8.50103908,1.47883604 L8.50103908,0.50829316 C8.50103908,0.227752686 8.27215721,0 7.98993478,0 C7.70784279,0 7.47883048,0.227752686 7.47883048,0.50829316 L7.47883048,1.47883604 L6.69450255,0.69869233 C6.49483408,0.500511178 6.17153029,0.500511178 5.97186186,0.69869233 C5.7721934,0.89726259 5.7721934,1.21917725 5.97186186,1.41774751 L7.47883048,2.91655732 L7.47883048,4.65466309 L4.89709522,6.13713075 L3.38321448,5.2678833 L2.83155047,3.22057343 C2.75864735,2.94950103 2.47864204,2.7885437 2.2056792,2.86130523 C1.93310764,2.93380737 1.77126013,3.21279145 1.84442407,3.48386382 L2.13134151,4.54921723 L1.28636964,4.06401064 C1.04209858,3.92367554 0.729228143,4.00707246 0.588247355,4.25 C0.447136125,4.49331665 0.530994276,4.80407715 0.775265342,4.94428252 L1.62023721,5.42961884 L0.548991807,5.71521758 C0.276420257,5.78771973 0.114572745,6.06657411 0.187475867,6.33777618 C0.260770214,6.60884858 0.54077556,6.76980591 0.813477553,6.69691466 L2.87211017,6.14828491 L4.38599092,7.01753233 L4.38599092,9.98246767 L2.87211017,10.8517151 L0.813477553,10.3030853 C0.54077556,10.2301941 0.260378955,10.3911514 0.187475867,10.6622238 C0.114572745,10.9334259 0.276420257,11.2122803 0.548991807,11.2847824 L1.62023721,11.5703812 L0.775265342,12.0557175 C0.530994276,12.1959229 0.447136125,12.5066833 0.588247355,12.75 C0.729228143,12.9929275 1.04209858,13.0763245 1.28636964,12.9359894 L2.13134151,12.4507828 L1.84442407,13.5161362 C1.77126013,13.7872085 1.93310764,14.0661926 2.2056792,14.1386948 C2.47825078,14.2114563 2.75864735,14.050499 2.83155047,13.7794266 L3.38321448,11.7321167 L4.89709522,10.8628692 L7.47883048,12.3453369 L7.47883048,14.0834427 L5.97186186,15.5822525 C5.7721934,15.7808228 5.7721934,16.1027374 5.97186186,16.3013077 C6.17153029,16.4994888 6.49483408,16.4994888 6.69450255,16.3013077 L7.47883048,15.521164 L7.47883048,16.4917068 C7.47883048,16.7722473 7.70784279,17 7.98993478,17 C8.27215721,17 8.50103908,16.7722473 8.50103908,16.4917068 L8.50103908,15.521164 L9.28549745,16.3013077 C9.48516588,16.4994888 9.80846968,16.4994888 10.0081381,16.3013077 C10.2078066,16.1027374 10.2078066,15.7808228 10.0081381,15.5822525 L8.50103908,14.0834427 L8.50103908,12.3453369 L11.0829048,10.8628692 L12.5967855,11.7321167 L13.1483191,13.7794266 C13.2213526,14.050499 13.5017492,14.2114563 13.7743208,14.1386948 C14.0468924,14.0661926 14.2087399,13.7872085 14.1354455,13.5161362 L13.8485281,12.4507828 L14.6936304,12.9359894 C14.9379014,13.0763245 15.2507719,12.9929275 15.3917526,12.75 C15.5328639,12.5066833 15.4490057,12.1959229 15.2047346,12.0557175 L14.3596323,11.5703812 L15.4310082,11.2847824 C15.7035797,11.2122803 15.8654273,10.9334259 15.7925241,10.6622238 C15.7192298,10.3911514 15.439094,10.2301941 15.1665224,10.3030853 L15.1665224,10.3030853 Z M5.40819949,7.60442353 L6.96772621,8.5 L5.40819949,9.39557647 L5.40819949,7.60442353 Z M7.47883048,11.1715546 L5.91930379,10.2759781 L7.47883048,9.38040161 L7.47883048,11.1715546 Z M7.47883048,7.61959839 L5.91930379,6.72402192 L7.47883048,5.82844542 L7.47883048,7.61959839 Z M8.50103908,5.82844542 L10.0606962,6.72402192 L8.50103908,7.61959839 L8.50103908,5.82844542 Z M8.50103908,11.1715546 L8.50103908,9.38040161 L10.0606962,10.2759781 L8.50103908,11.1715546 Z M10.5718005,9.39557647 L9.01214338,8.5 L10.5718005,7.60442353 L10.5718005,9.39557647 Z" id="Shape" fill="#7ED8F6"></path>
                <path d="M11.73,3.74 C11.73,4.11554415 11.4255441,4.42 11.05,4.42 C10.6743102,4.42 10.37,4.11554415 10.37,3.74 C10.37,3.36445589 10.6743102,3.06 11.05,3.06 C11.4255441,3.06 11.73,3.36445589 11.73,3.74 Z" id="Path" fill="#29C9FF"></path>
                <path d="M3.57,8.5 C3.57,8.87554411 3.26554411,9.18 2.89,9.18 C2.51445585,9.18 2.21,8.87554411 2.21,8.5 C2.21,8.12445589 2.51445585,7.82 2.89,7.82 C3.26554411,7.82 3.57,8.12445589 3.57,8.5 Z" id="Path" fill="#7ED8F6"></path>
                <path d="M14.11,8.5 C14.11,8.87554411 13.8055441,9.18 13.43,9.18 C13.0544559,9.18 12.75,8.87554411 12.75,8.5 C12.75,8.12445589 13.0544559,7.82 13.43,7.82 C13.8055441,7.82 14.11,8.12445589 14.11,8.5 Z" id="Path" fill="#29C9FF"></path>
                <path d="M6.29,3.74 C6.29,4.11554415 5.98554411,4.42 5.61,4.42 C5.23445589,4.42 4.93,4.11554415 4.93,3.74 C4.93,3.36445589 5.23445589,3.06 5.61,3.06 C5.98554411,3.06 6.29,3.36445589 6.29,3.74 Z" id="Path" fill="#7ED8F6"></path>
                <path d="M11.73,13.26 C11.73,13.6355441 11.4255441,13.94 11.05,13.94 C10.6744559,13.94 10.37,13.6355441 10.37,13.26 C10.37,12.8844559 10.6744559,12.58 11.05,12.58 C11.4255441,12.58 11.73,12.8844559 11.73,13.26 Z" id="Path" fill="#29C9FF"></path>
                <path d="M5.95,13.26 C5.95,13.6355441 5.64554411,13.94 5.27,13.94 C4.89445585,13.94 4.59,13.6355441 4.59,13.26 C4.59,12.8844559 4.89445585,12.58 5.27,12.58 C5.64554411,12.58 5.95,12.8844559 5.95,13.26 Z" id="Path" fill="#7ED8F6"></path>
                <path d="M15.1665278,10.3030853 L13.1079124,10.8517151 L11.5939138,9.98246767 L11.5939138,7.01753233 L13.1079124,6.14828491 L15.1665278,6.69691466 C15.4390971,6.76980591 15.7192305,6.60884858 15.7925243,6.33777618 C15.8654268,6.06657411 15.7035806,5.78771973 15.4310113,5.71521758 L14.3596444,5.42961884 L15.2047397,4.94428252 C15.4490087,4.80407715 15.5328662,4.49331665 15.3917561,4.25 C15.2507765,4.00707246 14.9379087,3.92367554 14.6936397,4.06401064 L13.8485444,4.54921723 L14.1354595,3.48386382 C14.2087532,3.21279145 14.0469071,2.93380737 13.7743377,2.86130523 C13.5013772,2.7885437 13.2213742,2.94950103 13.1483413,3.22057343 L12.5968123,5.2678833 L11.0829442,6.13713075 L8.50110004,4.65466309 L8.50110004,2.91655732 L10.0081865,1.41774751 C10.2078533,1.21917725 10.2078533,0.89726259 10.0081865,0.69869233 C9.80851973,0.500511178 9.48521863,0.500511178 9.28555187,0.69869233 L8.50110004,1.47883604 L8.50110004,0.50829316 C8.50110004,0.227752686 8.27222007,0 7.99,0 L7.99,17 C8.27222007,17 8.50110004,16.7722473 8.50110004,16.4917068 L8.50110004,15.521164 L9.28555187,16.3013077 C9.48521863,16.4994888 9.80851973,16.4994888 10.0081865,16.3013077 C10.2078533,16.1027374 10.2078533,15.7808228 10.0081865,15.5822525 L8.50110004,14.0834427 L8.50110004,12.3453369 L11.0829442,10.8628692 L12.5968123,11.7321167 L13.1483413,13.7794266 C13.2213742,14.050499 13.5017685,14.2114563 13.7743377,14.1386948 C14.0469071,14.0661926 14.2087532,13.7872085 14.1354595,13.5161362 L13.8485444,12.4507828 L14.6936397,12.9359894 C14.9379087,13.0763245 15.2507765,12.9929275 15.3917561,12.75 C15.5328662,12.5066833 15.4490087,12.1959229 15.2047397,12.0557175 L14.3596444,11.5703812 L15.4310113,11.2847824 C15.7035806,11.2122803 15.8654268,10.9334259 15.7925243,10.6622238 C15.7192305,10.3911514 15.4390971,10.2301941 15.1665278,10.3030853 L15.1665278,10.3030853 Z M8.50110004,5.82844542 L10.0607442,6.72402192 L8.50110004,7.61959839 L8.50110004,5.82844542 Z M8.50110004,11.1715546 L8.50110004,9.38040161 L10.0607442,10.2759781 L8.50110004,11.1715546 Z M10.5718442,9.39557647 L9.01220008,8.5 L10.5718442,7.60442353 L10.5718442,9.39557647 Z" id="Shape" fill="#29C9FF"></path>
            </g>
        </g>
    </g>
</svg>