<svg width="29px" height="30px" viewBox="0 0 29 30" version="1.1" xmlns="http://www.w3.org/2000/svg" xmlns:xlink="http://www.w3.org/1999/xlink">
    <g id="Page-1" stroke="none" stroke-width="1" fill="none" fill-rule="evenodd">
        <g id="save" transform="translate(1.000000, 1.000000)" fill="#00FFB2" fill-rule="nonzero">
            <path d="M22.170375,0 L20.8125,0 L5.0625,0 L0,0 L0,28 L3.9375,28 L22.5,28 L27,28 L27,4.90628571 L22.170375,0 Z M19.6875,1.14285714 L19.6875,9.14285714 L6.1875,9.14285714 L6.1875,1.14285714 L19.6875,1.14285714 Z M5.0625,26.8571429 L5.0625,16 L21.375,16 L21.375,26.8571429 L5.0625,26.8571429 Z M25.875,26.8571429 L22.5,26.8571429 L22.5,14.8571429 L3.9375,14.8571429 L3.9375,26.8571429 L1.125,26.8571429 L1.125,1.14285714 L5.0625,1.14285714 L5.0625,10.2857143 L20.8125,10.2857143 L20.8125,1.14285714 L21.704625,1.14285714 L25.875,5.37942857 L25.875,26.8571429 Z" id="Shape" stroke="#00FFB2"></path>
            <path d="M6.55555556,19 L10.4444444,19 C10.7516667,19 11,18.7765 11,18.5 C11,18.2235 10.7516667,18 10.4444444,18 L6.55555556,18 C6.24833333,18 6,18.2235 6,18.5 C6,18.7765 6.24833333,19 6.55555556,19 Z" id="Path"></path>
            <path d="M12.4166667,20 L6.58333333,20 C6.26075,20 6,20.2235 6,20.5 C6,20.7765 6.26075,21 6.58333333,21 L12.4166667,21 C12.73925,21 13,20.7765 13,20.5 C13,20.2235 12.73925,20 12.4166667,20 Z" id="Path"></path>
            <path d="M14.145,20.1396226 C14.0545,20.234717 14,20.3660377 14,20.4968553 C14,20.627673 14.0545,20.7584906 14.145,20.8540881 C14.2395,20.9446541 14.3645,21 14.5,21 C14.63,21 14.76,20.9446541 14.855,20.8540881 C14.945,20.7584906 15,20.627673 15,20.4968553 C15,20.3660377 14.945,20.234717 14.855,20.1396226 C14.67,19.9534591 14.33,19.9534591 14.145,20.1396226 Z" id="Path"></path>
            <path d="M18,2 L15,2 L15,8 L18,8 L18,2 Z M17,6.8 L16,6.8 L16,3.2 L17,3.2 L17,6.8 Z" id="Shape"></path>
        </g>
    </g>
</svg>